<?xml version="1.0" standalone="no"?>
<!DOCTYPE svg PUBLIC "-//W3C//DTD SVG 20010904//EN"
 "http://www.w3.org/TR/2001/REC-SVG-20010904/DTD/svg10.dtd">
<svg version="1.0" xmlns="http://www.w3.org/2000/svg"
 width="1345.800000pt" height="902.710000pt" viewBox="110.84 63.1 1345.8 902.71"
 preserveAspectRatio="xMidYMid meet">
<metadata>
Created by potrace 1.16, written by Peter Selinger 2001-2019
</metadata>
<g transform="translate(1536.000000,1022.000000) scale(-0.100000,-0.100000)"
fill="#F8766D" stroke="none">
<path d="M12274 9523 c-16 -48 -66 -148 -95 -189 -56 -81 -143 -158 -292 -257
-229 -152 -284 -232 -259 -378 6 -36 14 -73 18 -82 13 -34 -19 -16 -84 47
-201 192 -380 243 -585 166 -80 -30 -127 -78 -127 -131 0 -80 46 -137 205
-257 55 -41 110 -84 123 -95 l22 -21 -124 -37 c-153 -46 -190 -53 -386 -79
-575 -74 -745 -68 -1170 43 -330 86 -601 69 -925 -58 -163 -63 -227 -75 -403
-75 -166 1 -220 6 -772 84 -927 130 -980 131 -2105 45 -443 -34 -562 -40 -725
-36 -215 5 -226 7 -880 140 l-305 62 -240 0 c-268 -1 -410 -15 -840 -86 -477
-79 -675 -156 -845 -332 -61 -64 -115 -181 -155 -343 -124 -499 -159 -886
-116 -1259 11 -99 25 -256 31 -350 11 -198 12 -819 1 -1115 -11 -278 -26 -317
-186 -491 -114 -124 -166 -241 -185 -413 -13 -115 -3 -220 41 -440 16 -83 34
-199 40 -258 5 -59 14 -119 19 -134 l11 -27 45 44 c55 54 81 94 110 173 l23
61 0 -47 c1 -27 5 -48 10 -48 4 0 16 21 26 48 10 26 44 99 76 162 122 242 160
454 128 711 -9 76 -7 115 20 330 85 690 91 759 101 1342 5 286 11 521 14 524
6 6 12 -29 31 -187 9 -69 42 -291 75 -495 97 -608 94 -578 95 -895 0 -327 0
-326 -91 -535 -156 -358 -234 -548 -258 -623 -34 -107 -34 -205 -2 -372 40
-202 47 -330 36 -665 -7 -221 -20 -403 -50 -690 -22 -214 -40 -412 -40 -438 0
-58 16 -91 83 -171 66 -80 83 -120 101 -243 24 -160 74 -243 183 -300 102 -55
163 -68 308 -67 159 1 218 16 223 57 3 26 4 26 28 11 44 -30 134 6 134 53 0
68 -87 213 -215 358 -174 198 -202 264 -216 510 -15 289 -13 767 5 887 40 277
134 532 275 746 33 50 65 92 70 92 12 0 146 -263 200 -393 74 -179 128 -374
200 -719 34 -166 39 -203 50 -438 13 -243 18 -257 175 -419 67 -69 149 -163
184 -208 34 -45 75 -91 90 -102 46 -32 153 -43 388 -39 257 4 256 3 229 94
-41 143 -134 265 -308 404 -76 61 -144 145 -188 232 -85 168 -171 645 -189
1047 -10 221 -14 631 -6 631 11 0 152 -54 160 -61 4 -4 10 -55 11 -113 2 -61
9 -117 17 -133 11 -24 20 -28 64 -31 37 -2 54 1 64 13 8 9 18 66 25 130 10 97
15 119 35 140 32 34 83 42 141 22 26 -10 53 -17 61 -17 27 0 49 -37 72 -126
14 -51 31 -93 42 -101 26 -19 78 -16 104 5 21 17 23 25 20 113 -4 143 -3 152
22 172 13 10 64 44 113 76 155 101 242 207 291 355 15 45 28 82 29 84 2 2 76
-30 166 -71 309 -141 568 -235 844 -307 322 -84 548 -113 885 -113 354 -1 551
26 907 127 105 30 226 62 267 70 94 20 254 20 343 1 142 -30 292 -97 311 -140
33 -71 62 -297 62 -479 0 -116 4 -144 34 -260 53 -201 61 -276 60 -606 -1
-389 -17 -520 -93 -765 -85 -269 -86 -292 -22 -370 43 -53 75 -142 89 -251 12
-86 48 -163 105 -222 106 -110 247 -142 473 -108 89 13 134 28 134 45 0 5 17
8 38 8 45 -1 92 27 92 56 0 23 -113 220 -162 284 -18 23 -52 64 -75 93 -24 29
-49 74 -58 103 -21 69 -49 490 -48 712 0 138 6 208 22 300 31 173 44 207 110
278 121 130 146 208 207 642 32 228 39 253 49 170 18 -157 51 -338 95 -525 27
-113 55 -239 61 -280 17 -100 16 -627 0 -830 -24 -280 -21 -292 96 -408 57
-57 94 -105 137 -182 104 -184 132 -203 316 -208 128 -4 344 18 383 40 16 8
19 17 14 57 -3 25 -15 73 -28 106 -22 60 -47 88 -210 240 -109 102 -172 215
-203 367 -32 156 -46 587 -25 794 13 132 21 156 92 281 59 105 89 190 162 464
26 96 54 182 63 191 8 10 49 36 91 59 126 68 211 129 304 218 142 137 201 226
312 471 77 171 126 252 263 435 58 77 120 172 137 210 48 102 101 275 151 487
66 283 86 325 239 514 248 307 404 417 590 417 39 0 156 -1 260 -2 199 -2 233
2 480 54 186 39 286 35 520 -20 166 -38 250 -43 310 -16 64 28 77 41 137 129
27 40 68 85 90 100 61 41 128 103 144 134 22 42 44 162 51 270 5 78 3 106 -11
142 -21 56 -85 115 -168 157 -145 73 -206 126 -480 421 -189 203 -221 253
-290 448 -62 176 -132 278 -351 510 -81 85 -146 158 -144 161 1 3 29 29 62 56
72 59 126 135 157 218 29 78 31 249 5 308 -10 20 -19 37 -22 37 -3 0 -27 -44
-54 -97 -82 -165 -151 -242 -268 -302 -52 -26 -59 -26 -136 0 -83 28 -183 28
-262 0 -94 -34 -104 -36 -70 -10 64 48 143 137 167 189 57 122 60 248 8 359
-31 65 -37 71 -46 44z"/>
</g>
</svg>
