<?xml version="1.0" standalone="no"?>
<!DOCTYPE svg PUBLIC "-//W3C//DTD SVG 20010904//EN"
 "http://www.w3.org/TR/2001/REC-SVG-20010904/DTD/svg10.dtd">
<svg version="1.0" xmlns="http://www.w3.org/2000/svg"
 width="1690.000000pt" height="1290.000000pt" viewBox="0 0 169.000000 129.000000"
 preserveAspectRatio="xMidYMid meet">
<metadata>
Created by potrace 1.16, written by Peter Selinger 2001-2019
</metadata>
<g transform="translate(0.000000,129.000000) scale(0.100000,-0.100000)"
fill="#A0522D" stroke="none">
<path d="M176 1265 c-3 -9 -6 -46 -6 -81 0 -58 -3 -70 -31 -104 -17 -21 -28
-43 -25 -48 3 -6 -4 -19 -17 -30 -12 -11 -40 -36 -61 -55 -46 -40 -44 -59 9
-81 24 -10 35 -21 35 -36 0 -18 4 -20 43 -14 23 4 54 13 69 21 27 13 29 12 48
-19 11 -18 28 -58 37 -88 31 -107 58 -153 132 -224 39 -38 76 -76 81 -86 5 -9
14 -63 19 -119 13 -120 3 -152 -55 -176 -42 -17 -40 -36 6 -51 29 -10 30 -12
11 -17 -11 -3 -21 -12 -21 -21 0 -25 39 -38 85 -29 37 7 43 13 73 73 27 55 35
87 49 205 9 77 18 142 21 145 2 3 49 5 105 6 58 0 132 7 172 17 38 9 79 14 90
11 11 -4 40 -29 64 -58 24 -28 73 -74 110 -101 59 -45 66 -54 66 -85 0 -30 -4
-35 -32 -42 -40 -11 -44 -40 -8 -56 44 -20 60 -14 115 44 39 42 51 61 48 78
-4 22 -3 23 26 15 17 -5 45 -9 63 -9 77 0 149 -126 101 -177 -11 -12 -18 -29
-15 -37 9 -24 60 -20 85 7 21 22 21 28 12 128 -5 57 -12 111 -15 120 -3 9 -29
27 -56 40 -45 20 -55 31 -84 89 -18 36 -38 91 -45 122 -18 91 -60 141 -174
214 -169 109 -324 154 -613 178 -106 9 -147 16 -153 27 -5 8 -41 39 -80 69
-116 89 -146 117 -171 165 -24 46 -33 53 -44 35 -11 -17 -22 -11 -43 21 -16
25 -20 28 -26 14z"/>
</g>
</svg>
